<?xml version="1.0" encoding="UTF-8" standalone="no"?>
<svg
   width="598"
   height="144"
   version="1.1"
   id="svg80"
   sodipodi:docname="barcode.svg"
   inkscape:version="1.4.2 (f4327f4, 2025-05-13)"
   xmlns:inkscape="http://www.inkscape.org/namespaces/inkscape"
   xmlns:sodipodi="http://sodipodi.sourceforge.net/DTD/sodipodi-0.dtd"
   xmlns="http://www.w3.org/2000/svg"
   xmlns:svg="http://www.w3.org/2000/svg">
  <defs
     id="defs80" />
  <sodipodi:namedview
     id="namedview80"
     pagecolor="#ffffff"
     bordercolor="#000000"
     borderopacity="0.25"
     inkscape:showpageshadow="2"
     inkscape:pageopacity="0.0"
     inkscape:pagecheckerboard="0"
     inkscape:deskcolor="#d1d1d1"
     inkscape:zoom="2.2441472"
     inkscape:cx="140.14232"
     inkscape:cy="73.52459"
     inkscape:window-width="1440"
     inkscape:window-height="878"
     inkscape:window-x="-6"
     inkscape:window-y="-6"
     inkscape:window-maximized="1"
     inkscape:current-layer="barcodeSVG" />
  <svg
     id="barcodeSVG"
     role="img"
     aria-label="Barcode preview"
     width="596px"
     height="142px"
     x="0px"
     y="0px"
     viewBox="0 0 596 142"
     version="1.1"
     style="transform: translate(0,0)">
    <g
       transform="translate(10, 10)"
       style="fill:#000000;"
       id="g80">
      <rect
         x="0"
         y="0"
         width="4"
         height="100"
         id="rect2" />
      <rect
         x="6"
         y="0"
         width="2"
         height="100"
         id="rect3" />
      <rect
         x="12"
         y="0"
         width="2"
         height="100"
         id="rect4" />
      <rect
         x="22"
         y="0"
         width="2"
         height="100"
         id="rect5" />
      <rect
         x="28"
         y="0"
         width="8"
         height="100"
         id="rect6" />
      <rect
         x="38"
         y="0"
         width="2"
         height="100"
         id="rect7" />
      <rect
         x="44"
         y="0"
         width="2"
         height="100"
         id="rect8" />
      <rect
         x="54"
         y="0"
         width="4"
         height="100"
         id="rect9" />
      <rect
         x="60"
         y="0"
         width="2"
         height="100"
         id="rect10" />
      <rect
         x="66"
         y="0"
         width="2"
         height="100"
         id="rect11" />
      <rect
         x="72"
         y="0"
         width="4"
         height="100"
         id="rect12" />
      <rect
         x="78"
         y="0"
         width="2"
         height="100"
         id="rect13" />
      <rect
         x="88"
         y="0"
         width="2"
         height="100"
         id="rect14" />
      <rect
         x="92"
         y="0"
         width="4"
         height="100"
         id="rect15" />
      <rect
         x="100"
         y="0"
         width="2"
         height="100"
         id="rect16" />
      <rect
         x="110"
         y="0"
         width="2"
         height="100"
         id="rect17" />
      <rect
         x="116"
         y="0"
         width="2"
         height="100"
         id="rect18" />
      <rect
         x="122"
         y="0"
         width="8"
         height="100"
         id="rect19" />
      <rect
         x="132"
         y="0"
         width="2"
         height="100"
         id="rect20" />
      <rect
         x="136"
         y="0"
         width="8"
         height="100"
         id="rect21" />
      <rect
         x="148"
         y="0"
         width="2"
         height="100"
         id="rect22" />
      <rect
         x="154"
         y="0"
         width="2"
         height="100"
         id="rect23" />
      <rect
         x="158"
         y="0"
         width="2"
         height="100"
         id="rect24" />
      <rect
         x="164"
         y="0"
         width="8"
         height="100"
         id="rect25" />
      <rect
         x="176"
         y="0"
         width="2"
         height="100"
         id="rect26" />
      <rect
         x="180"
         y="0"
         width="4"
         height="100"
         id="rect27" />
      <rect
         x="188"
         y="0"
         width="2"
         height="100"
         id="rect28" />
      <rect
         x="198"
         y="0"
         width="4"
         height="100"
         id="rect29" />
      <rect
         x="210"
         y="0"
         width="2"
         height="100"
         id="rect30" />
      <rect
         x="214"
         y="0"
         width="2"
         height="100"
         id="rect31" />
      <rect
         x="220"
         y="0"
         width="2"
         height="100"
         id="rect32" />
      <rect
         x="230"
         y="0"
         width="2"
         height="100"
         id="rect33" />
      <rect
         x="236"
         y="0"
         width="4"
         height="100"
         id="rect34" />
      <rect
         x="242"
         y="0"
         width="2"
         height="100"
         id="rect35" />
      <rect
         x="246"
         y="0"
         width="2"
         height="100"
         id="rect36" />
      <rect
         x="252"
         y="0"
         width="8"
         height="100"
         id="rect37" />
      <rect
         x="264"
         y="0"
         width="4"
         height="100"
         id="rect38" />
      <rect
         x="272"
         y="0"
         width="2"
         height="100"
         id="rect39" />
      <rect
         x="276"
         y="0"
         width="2"
         height="100"
         id="rect40" />
      <rect
         x="286"
         y="0"
         width="2"
         height="100"
         id="rect41" />
      <rect
         x="292"
         y="0"
         width="8"
         height="100"
         id="rect42" />
      <rect
         x="304"
         y="0"
         width="2"
         height="100"
         id="rect43" />
      <rect
         x="308"
         y="0"
         width="2"
         height="100"
         id="rect44" />
      <rect
         x="312"
         y="0"
         width="8"
         height="100"
         id="rect45" />
      <rect
         x="324"
         y="0"
         width="2"
         height="100"
         id="rect46" />
      <rect
         x="330"
         y="0"
         width="2"
         height="100"
         id="rect47" />
      <rect
         x="334"
         y="0"
         width="2"
         height="100"
         id="rect48" />
      <rect
         x="340"
         y="0"
         width="8"
         height="100"
         id="rect49" />
      <rect
         x="352"
         y="0"
         width="4"
         height="100"
         id="rect50" />
      <rect
         x="360"
         y="0"
         width="2"
         height="100"
         id="rect51" />
      <rect
         x="364"
         y="0"
         width="2"
         height="100"
         id="rect52" />
      <rect
         x="374"
         y="0"
         width="2"
         height="100"
         id="rect53" />
      <rect
         x="380"
         y="0"
         width="8"
         height="100"
         id="rect54" />
      <rect
         x="392"
         y="0"
         width="2"
         height="100"
         id="rect55" />
      <rect
         x="396"
         y="0"
         width="2"
         height="100"
         id="rect56" />
      <rect
         x="400"
         y="0"
         width="8"
         height="100"
         id="rect57" />
      <rect
         x="412"
         y="0"
         width="2"
         height="100"
         id="rect58" />
      <rect
         x="418"
         y="0"
         width="2"
         height="100"
         id="rect59" />
      <rect
         x="424"
         y="0"
         width="4"
         height="100"
         id="rect60" />
      <rect
         x="432"
         y="0"
         width="6"
         height="100"
         id="rect61" />
      <rect
         x="440"
         y="0"
         width="2"
         height="100"
         id="rect62" />
      <rect
         x="450"
         y="0"
         width="4"
         height="100"
         id="rect63" />
      <rect
         x="456"
         y="0"
         width="2"
         height="100"
         id="rect64" />
      <rect
         x="462"
         y="0"
         width="4"
         height="100"
         id="rect65" />
      <rect
         x="474"
         y="0"
         width="2"
         height="100"
         id="rect66" />
      <rect
         x="478"
         y="0"
         width="2"
         height="100"
         id="rect67" />
      <rect
         x="484"
         y="0"
         width="2"
         height="100"
         id="rect68" />
      <rect
         x="488"
         y="0"
         width="4"
         height="100"
         id="rect69" />
      <rect
         x="500"
         y="0"
         width="2"
         height="100"
         id="rect70" />
      <rect
         x="506"
         y="0"
         width="2"
         height="100"
         id="rect71" />
      <rect
         x="514"
         y="0"
         width="8"
         height="100"
         id="rect72" />
      <rect
         x="524"
         y="0"
         width="2"
         height="100"
         id="rect73" />
      <rect
         x="528"
         y="0"
         width="2"
         height="100"
         id="rect74" />
      <rect
         x="532"
         y="0"
         width="4"
         height="100"
         id="rect75" />
      <rect
         x="540"
         y="0"
         width="2"
         height="100"
         id="rect76" />
      <rect
         x="550"
         y="0"
         width="4"
         height="100"
         id="rect77" />
      <rect
         x="560"
         y="0"
         width="6"
         height="100"
         id="rect78" />
      <rect
         x="568"
         y="0"
         width="2"
         height="100"
         id="rect79" />
      <rect
         x="572"
         y="0"
         width="4"
         height="100"
         id="rect80" />
    </g>
  </svg>
</svg>
